<?xml version="1.0" standalone="no"?>
<!DOCTYPE svg PUBLIC "-//W3C//DTD SVG 20010904//EN"
 "http://www.w3.org/TR/2001/REC-SVG-20010904/DTD/svg10.dtd">
<svg version="1.0" xmlns="http://www.w3.org/2000/svg"
 width="500.000000pt" height="500.000000pt" viewBox="0 0 500.000000 500.000000"
 preserveAspectRatio="xMidYMid meet">

<g transform="translate(0.000000,500.000000) scale(0.100000,-0.100000)"
fill="#000000" stroke="none">
<path d="M980 4854 c-142 -38 -252 -129 -318 -262 l-37 -77 -3 -890 c-3 -805
-1 -896 14 -953 40 -150 181 -291 332 -331 23 -7 87 -16 141 -20 167 -15 196
-39 355 -287 59 -93 120 -182 135 -197 45 -49 98 -71 172 -72 56 0 73 4 115
30 42 26 64 54 151 190 111 176 155 228 227 270 108 63 60 60 896 65 752 5
766 6 822 27 132 50 226 136 287 263 l36 75 3 870 c2 632 0 885 -8 925 -27
128 -120 258 -233 324 -117 69 -41 66 -1614 65 -1210 0 -1426 -2 -1473 -15z
m1017 -416 c70 -26 151 -101 194 -180 34 -63 34 -64 34 -193 0 -120 -2 -134
-27 -187 -34 -74 -112 -152 -186 -186 -50 -24 -69 -27 -157 -27 -90 0 -106 3
-160 29 -74 37 -145 108 -182 183 -26 55 -28 66 -28 188 0 123 1 133 28 184
97 184 292 260 484 189z m1231 10 c95 -29 185 -109 230 -206 25 -52 27 -68 27
-182 0 -116 -2 -129 -28 -181 -36 -74 -112 -150 -184 -186 -52 -25 -68 -28
-158 -28 -93 0 -105 2 -167 33 -78 38 -138 100 -177 182 -22 47 -26 71 -29
170 -4 147 14 203 95 290 102 111 249 151 391 108z"/>
<path d="M3155 1470 c-117 -21 -196 -63 -273 -144 -165 -175 -158 -453 17
-620 237 -225 638 -163 778 122 38 75 38 77 38 196 0 115 -2 124 -32 188 -74
157 -216 249 -405 262 -40 3 -95 1 -123 -4z m159 -194 c103 -31 166 -112 174
-224 8 -124 -38 -214 -137 -264 -165 -84 -353 40 -354 232 -1 121 68 222 173
255 59 18 87 18 144 1z"/>
<path d="M489 1455 c-128 -35 -238 -124 -295 -240 -30 -61 -37 -87 -41 -157
-18 -277 176 -479 462 -481 108 -1 192 19 295 71 l75 37 3 173 2 172 -95 0
-95 0 0 -115 0 -115 -37 -16 c-51 -23 -153 -29 -208 -14 -58 16 -127 77 -156
138 -29 58 -31 166 -5 224 71 162 261 205 430 98 26 -17 48 -30 49 -30 2 0 29
32 61 71 55 66 57 71 41 88 -23 27 -130 77 -200 96 -71 18 -221 18 -286 0z"/>
<path d="M1330 1452 c-135 -45 -228 -124 -283 -239 -30 -65 -32 -74 -32 -188
0 -114 2 -123 31 -185 74 -154 206 -244 389 -264 179 -21 381 76 468 224 58
100 73 268 33 380 -40 110 -147 216 -264 261 -81 31 -263 37 -342 11z m232
-174 c53 -16 121 -78 148 -135 27 -58 30 -168 6 -226 -23 -52 -83 -117 -131
-138 -50 -23 -142 -24 -193 -4 -20 9 -54 33 -75 53 -116 112 -115 289 3 395
71 64 152 82 242 55z"/>
<path d="M2000 1025 l0 -447 278 4 c232 4 284 7 322 22 134 51 196 151 169
274 -15 71 -56 124 -121 156 -29 14 -46 25 -38 26 26 0 89 49 106 83 65 124
15 243 -122 298 -55 22 -75 23 -326 27 l-268 4 0 -447z m477 249 c24 -18 28
-28 28 -69 0 -41 -4 -51 -28 -69 -25 -18 -42 -21 -140 -21 l-112 0 -3 79 c-2
44 0 86 3 94 4 11 27 13 114 10 93 -2 114 -6 138 -24z m8 -338 c62 -26 75 -97
27 -146 -33 -33 -92 -43 -212 -38 l-75 3 -3 98 -3 97 116 0 c77 0 127 -5 150
-14z"/>
<path d="M3700 1465 c0 -2 58 -89 128 -192 71 -104 136 -200 146 -214 16 -26
16 -26 -139 -248 -85 -123 -155 -225 -155 -227 0 -2 58 -4 128 -4 l128 0 96
140 96 141 34 -48 c19 -26 63 -90 97 -140 l62 -93 135 0 135 0 -87 128 c-48
70 -120 174 -160 232 l-72 105 144 208 c79 115 144 210 144 213 0 2 -59 4
-130 4 l-131 0 -80 -122 c-44 -68 -83 -124 -88 -126 -4 -1 -45 54 -91 123
l-83 125 -128 0 c-71 0 -129 -2 -129 -5z"/>
</g>
</svg>
